<?xml version="1.0" standalone="no"?>
<!DOCTYPE svg PUBLIC "-//W3C//DTD SVG 20010904//EN"
 "http://www.w3.org/TR/2001/REC-SVG-20010904/DTD/svg10.dtd">
<svg version="1.0" xmlns="http://www.w3.org/2000/svg"
 width="429.000000pt" height="117.000000pt" viewBox="0 0 429.000000 117.000000"
 preserveAspectRatio="xMidYMid meet">

<g transform="translate(0.000000,117.000000) scale(0.100000,-0.100000)"
fill="#000000" stroke="none">
<path d="M543 1111 c-37 -23 -47 -49 -39 -105 6 -39 4 -44 -37 -84 -40 -39
-46 -42 -72 -32 -79 30 -155 -55 -116 -129 8 -14 0 -27 -38 -65 -42 -42 -51
-46 -69 -37 -77 41 -163 -52 -121 -131 14 -26 74 -51 102 -42 56 17 84 68 66
121 -11 33 -9 35 35 79 39 37 49 43 65 34 33 -17 69 -11 101 18 32 27 40 64
27 107 -5 15 5 32 38 67 43 44 47 45 75 35 23 -9 38 -8 62 1 32 12 34 11 73
-35 37 -44 40 -51 37 -98 -3 -48 -1 -54 28 -78 33 -28 68 -34 101 -16 17 8 27
3 66 -34 44 -43 45 -45 34 -79 -8 -25 -9 -43 -1 -63 10 -26 7 -32 -36 -76 -42
-43 -48 -46 -73 -36 -34 13 -75 3 -103 -25 -17 -17 -20 -29 -15 -73 5 -52 5
-53 -43 -100 -29 -29 -50 -43 -54 -36 -9 14 -79 14 -92 1 -7 -7 -26 7 -58 39
-44 45 -47 52 -39 78 6 17 6 41 1 62 -9 32 -7 37 34 78 41 41 46 43 73 33 64
-24 125 20 125 90 0 30 -6 44 -31 64 -40 34 -79 33 -119 -1 -31 -26 -32 -29
-27 -83 6 -56 6 -57 -37 -99 -38 -37 -47 -41 -64 -32 -77 41 -163 -52 -121
-131 6 -11 27 -26 46 -35 29 -12 41 -12 65 -2 28 11 32 10 73 -31 43 -42 43
-43 38 -95 -5 -48 -3 -56 20 -79 36 -36 98 -36 134 0 23 23 25 31 20 79 -5 51
-4 53 37 94 39 38 45 41 71 31 35 -13 89 3 110 33 17 24 20 70 6 96 -8 14 -1
27 38 65 45 44 48 46 79 35 39 -13 84 1 107 35 53 74 -37 178 -117 135 -18 -9
-27 -5 -69 37 -38 38 -46 51 -38 65 39 74 -37 159 -116 129 -26 -10 -32 -8
-72 31 -39 39 -42 46 -37 80 9 55 -2 87 -39 109 -40 25 -54 25 -94 1z m93 -24
c35 -31 38 -82 5 -109 -78 -62 -169 43 -95 110 32 28 56 28 90 -1z m-225 -226
c32 -26 32 -86 0 -112 -73 -59 -163 40 -99 108 26 28 67 30 99 4z m453 -2 c52
-41 22 -129 -45 -129 -43 0 -73 31 -73 75 0 67 64 96 118 54z m-675 -235 c28
-35 26 -69 -4 -99 -68 -69 -170 31 -103 102 30 33 80 31 107 -3z m436 20 c44
-17 48 -99 7 -130 -54 -42 -134 21 -110 86 16 44 57 61 103 44z m472 -16 c48
-45 13 -128 -54 -128 -32 0 -73 42 -73 75 0 34 42 75 76 75 15 0 38 -10 51
-22z m-674 -240 c48 -64 -37 -149 -101 -101 -36 27 -42 83 -12 113 30 30 86
24 113 -12z m447 12 c30 -30 27 -83 -6 -109 -30 -24 -43 -26 -77 -10 -71 32
-47 139 30 139 20 0 41 -8 53 -20z m-227 -228 c24 -21 23 -84 -3 -107 -47 -42
-124 -7 -122 55 2 69 72 99 125 52z"/>
<path d="M2350 775 c-8 -2 -32 -6 -52 -10 l-37 -6 50 -62 c28 -34 75 -99 106
-144 l56 -82 -41 -53 c-23 -29 -72 -91 -111 -138 -75 -92 -75 -97 5 -85 36 5
47 12 60 38 19 37 117 177 124 177 3 0 37 -50 75 -111 l70 -110 62 6 c98 9 99
10 55 64 -21 25 -71 92 -111 149 l-71 103 37 47 c21 26 71 86 111 135 79 94
79 93 -12 81 -25 -4 -46 -11 -46 -17 0 -11 -108 -175 -121 -183 -7 -4 -96 122
-128 184 -11 21 -36 26 -81 17z"/>
<path d="M2945 775 c-5 -2 -31 -6 -58 -10 l-47 -6 43 -52 c24 -29 72 -93 107
-144 l63 -92 -55 -73 c-31 -40 -82 -103 -113 -140 l-57 -68 30 0 c73 0 89 10
127 74 20 33 53 81 74 105 l38 44 69 -112 69 -112 62 6 c98 9 98 9 44 78 -27
34 -76 102 -110 150 l-61 88 62 77 c34 42 84 103 111 135 l49 57 -34 -1 c-72
-3 -83 -11 -149 -109 -36 -52 -69 -95 -74 -95 -6 1 -38 46 -73 100 -61 97 -80
114 -117 100z"/>
<path d="M3477 774 c-13 -4 -15 -11 -10 -32 5 -15 7 -142 7 -282 -1 -181 1
-257 10 -262 14 -10 98 -10 111 0 6 4 8 53 5 127 -3 66 -3 192 0 280 3 88 4
161 4 163 -3 6 -109 11 -127 6z"/>
<path d="M3920 774 c-8 -3 -28 -41 -44 -87 -45 -129 -176 -460 -187 -474 -8
-9 -4 -14 16 -19 43 -11 68 8 89 67 10 30 23 60 29 67 6 8 44 12 122 12 l113
0 25 -67 c22 -62 28 -69 59 -77 43 -11 112 0 104 17 -35 78 -123 300 -161 407
-27 74 -55 141 -64 148 -14 11 -68 15 -101 6z m110 -356 c0 -5 -40 -8 -90 -8
l-90 0 26 72 c14 39 35 92 46 117 l20 46 44 -110 c24 -60 44 -113 44 -117z"/>
<path d="M1230 714 l0 -52 84 5 83 6 8 -49 c4 -26 4 -133 0 -236 l-8 -187 25
-6 c14 -4 44 -5 68 -3 l43 3 -2 239 -2 239 84 -6 85 -7 4 31 c3 17 3 41 1 53
-4 21 -7 21 -239 21 l-234 0 0 -51z"/>
<path d="M1787 735 c4 -16 6 -143 5 -282 l-2 -252 195 -3 195 -3 10 35 c6 19
10 47 10 61 l0 26 -67 -15 c-59 -12 -196 -13 -207 -1 -2 2 -7 37 -11 78 l-7
74 116 -6 116 -6 0 43 0 44 -110 -6 -110 -5 0 78 0 77 108 -5 c59 -3 117 -8
129 -12 23 -8 27 -1 38 71 l6 41 -211 -1 -211 -1 8 -30z"/>
</g>
</svg>
